<mxfile host="app.diagrams.net" modified="2021-08-03T18:40:14.972Z" agent="5.0 (Windows NT 10.0; Win64; x64) AppleWebKit/537.36 (KHTML, like Gecko) Chrome/92.0.4515.107 Safari/537.36" etag="DpkyjUXsto5rBvIdXKYf" version="14.8.5" type="github">
  <diagram id="qyjM96vxxShzb0PJh5sf" name="Page-1">
    <mxGraphModel dx="1231" dy="643" grid="1" gridSize="10" guides="1" tooltips="1" connect="1" arrows="1" fold="1" page="1" pageScale="1" pageWidth="827" pageHeight="1169" math="0" shadow="0">
      <root>
        <mxCell id="0" />
        <mxCell id="1" parent="0" />
        <mxCell id="nFnSRKEwGQq1fUNqRYj8-26" value="" style="whiteSpace=wrap;html=1;aspect=fixed;" vertex="1" parent="1">
          <mxGeometry x="160" width="550" height="550" as="geometry" />
        </mxCell>
        <mxCell id="nFnSRKEwGQq1fUNqRYj8-9" style="edgeStyle=orthogonalEdgeStyle;rounded=0;orthogonalLoop=1;jettySize=auto;html=1;" edge="1" parent="1" source="nFnSRKEwGQq1fUNqRYj8-2">
          <mxGeometry relative="1" as="geometry">
            <mxPoint x="280" y="200" as="targetPoint" />
            <Array as="points">
              <mxPoint x="280" y="140" />
            </Array>
          </mxGeometry>
        </mxCell>
        <mxCell id="nFnSRKEwGQq1fUNqRYj8-10" style="edgeStyle=orthogonalEdgeStyle;rounded=0;orthogonalLoop=1;jettySize=auto;html=1;" edge="1" parent="1" source="nFnSRKEwGQq1fUNqRYj8-2">
          <mxGeometry relative="1" as="geometry">
            <mxPoint x="280" y="80" as="targetPoint" />
            <Array as="points">
              <mxPoint x="280" y="130" />
            </Array>
          </mxGeometry>
        </mxCell>
        <mxCell id="nFnSRKEwGQq1fUNqRYj8-2" value="&lt;font style=&quot;vertical-align: inherit&quot;&gt;&lt;font style=&quot;vertical-align: inherit&quot;&gt;&lt;font style=&quot;vertical-align: inherit&quot;&gt;&lt;font style=&quot;vertical-align: inherit&quot;&gt;Funcionário da &lt;br&gt;Tico e Teco&lt;/font&gt;&lt;/font&gt;&lt;/font&gt;&lt;/font&gt;" style="shape=umlActor;verticalLabelPosition=bottom;verticalAlign=top;html=1;outlineConnect=0;" vertex="1" parent="1">
          <mxGeometry x="80" y="100" width="40" height="60" as="geometry" />
        </mxCell>
        <mxCell id="nFnSRKEwGQq1fUNqRYj8-5" value="&lt;font style=&quot;vertical-align: inherit&quot;&gt;&lt;font style=&quot;vertical-align: inherit&quot;&gt;&lt;font style=&quot;vertical-align: inherit&quot;&gt;&lt;font style=&quot;vertical-align: inherit&quot;&gt;Cadastrar cliente&lt;/font&gt;&lt;/font&gt;&lt;/font&gt;&lt;/font&gt;" style="ellipse;whiteSpace=wrap;html=1;" vertex="1" parent="1">
          <mxGeometry x="230" width="120" height="80" as="geometry" />
        </mxCell>
        <mxCell id="nFnSRKEwGQq1fUNqRYj8-12" style="edgeStyle=orthogonalEdgeStyle;rounded=0;orthogonalLoop=1;jettySize=auto;html=1;entryX=0;entryY=0.5;entryDx=0;entryDy=0;" edge="1" parent="1" source="nFnSRKEwGQq1fUNqRYj8-11" target="nFnSRKEwGQq1fUNqRYj8-14">
          <mxGeometry relative="1" as="geometry">
            <mxPoint x="480" y="200" as="targetPoint" />
            <Array as="points">
              <mxPoint x="415" y="210" />
              <mxPoint x="415" y="140" />
            </Array>
          </mxGeometry>
        </mxCell>
        <mxCell id="nFnSRKEwGQq1fUNqRYj8-13" style="edgeStyle=orthogonalEdgeStyle;rounded=0;orthogonalLoop=1;jettySize=auto;html=1;entryX=0;entryY=0.5;entryDx=0;entryDy=0;" edge="1" parent="1" source="nFnSRKEwGQq1fUNqRYj8-11" target="nFnSRKEwGQq1fUNqRYj8-15">
          <mxGeometry relative="1" as="geometry">
            <mxPoint x="480" y="280" as="targetPoint" />
            <Array as="points">
              <mxPoint x="415" y="220" />
              <mxPoint x="415" y="240" />
            </Array>
          </mxGeometry>
        </mxCell>
        <mxCell id="nFnSRKEwGQq1fUNqRYj8-17" value="" style="edgeStyle=orthogonalEdgeStyle;rounded=0;orthogonalLoop=1;jettySize=auto;html=1;" edge="1" parent="1" source="nFnSRKEwGQq1fUNqRYj8-11" target="nFnSRKEwGQq1fUNqRYj8-16">
          <mxGeometry relative="1" as="geometry">
            <Array as="points">
              <mxPoint x="290" y="300" />
              <mxPoint x="540" y="300" />
            </Array>
          </mxGeometry>
        </mxCell>
        <mxCell id="nFnSRKEwGQq1fUNqRYj8-19" value="" style="edgeStyle=orthogonalEdgeStyle;rounded=0;orthogonalLoop=1;jettySize=auto;html=1;" edge="1" parent="1" source="nFnSRKEwGQq1fUNqRYj8-11" target="nFnSRKEwGQq1fUNqRYj8-18">
          <mxGeometry relative="1" as="geometry">
            <Array as="points">
              <mxPoint x="280" y="490" />
            </Array>
          </mxGeometry>
        </mxCell>
        <mxCell id="nFnSRKEwGQq1fUNqRYj8-11" value="&lt;font style=&quot;vertical-align: inherit&quot;&gt;&lt;font style=&quot;vertical-align: inherit&quot;&gt;Cadastrar tema&lt;/font&gt;&lt;/font&gt;" style="ellipse;whiteSpace=wrap;html=1;" vertex="1" parent="1">
          <mxGeometry x="230" y="200" width="120" height="80" as="geometry" />
        </mxCell>
        <mxCell id="nFnSRKEwGQq1fUNqRYj8-14" value="&lt;font style=&quot;font-size: 12px&quot;&gt;&lt;font style=&quot;vertical-align: inherit&quot;&gt;&lt;font style=&quot;vertical-align: inherit&quot;&gt;&lt;font style=&quot;vertical-align: inherit&quot;&gt;&lt;font style=&quot;vertical-align: inherit&quot;&gt;&lt;font style=&quot;vertical-align: inherit&quot;&gt;&lt;font style=&quot;vertical-align: inherit&quot;&gt;Cadastrar&amp;nbsp;&lt;/font&gt;&lt;/font&gt;&lt;/font&gt;&lt;/font&gt;&lt;/font&gt;&lt;/font&gt;&lt;/font&gt;&lt;span style=&quot;color: rgb(32 , 33 , 36) ; letter-spacing: 0.1px ; background-color: rgb(255 , 255 , 255)&quot;&gt;&lt;font style=&quot;vertical-align: inherit&quot;&gt;&lt;font style=&quot;vertical-align: inherit&quot;&gt;&lt;font style=&quot;vertical-align: inherit&quot;&gt;&lt;font style=&quot;vertical-align: inherit&quot;&gt;&lt;font style=&quot;vertical-align: inherit&quot;&gt;&lt;font style=&quot;vertical-align: inherit&quot;&gt;local, data e hora&lt;/font&gt;&lt;/font&gt;&lt;/font&gt;&lt;/font&gt;&lt;/font&gt;&lt;/font&gt;&lt;/span&gt;" style="ellipse;whiteSpace=wrap;html=1;" vertex="1" parent="1">
          <mxGeometry x="480" y="100" width="120" height="80" as="geometry" />
        </mxCell>
        <mxCell id="nFnSRKEwGQq1fUNqRYj8-15" value="&lt;font style=&quot;vertical-align: inherit&quot;&gt;&lt;font style=&quot;vertical-align: inherit&quot;&gt;Cadastrar itens&lt;/font&gt;&lt;/font&gt;" style="ellipse;whiteSpace=wrap;html=1;" vertex="1" parent="1">
          <mxGeometry x="480" y="200" width="120" height="80" as="geometry" />
        </mxCell>
        <mxCell id="nFnSRKEwGQq1fUNqRYj8-16" value="&lt;font style=&quot;vertical-align: inherit&quot;&gt;&lt;font style=&quot;vertical-align: inherit&quot;&gt;&lt;font style=&quot;vertical-align: inherit&quot;&gt;&lt;font style=&quot;vertical-align: inherit&quot;&gt;&lt;font style=&quot;vertical-align: inherit&quot;&gt;&lt;font style=&quot;vertical-align: inherit&quot;&gt;Informar cor de&lt;br&gt;preferência&lt;br&gt;&lt;/font&gt;&lt;/font&gt;&lt;/font&gt;&lt;/font&gt;&lt;/font&gt;&lt;/font&gt;" style="ellipse;whiteSpace=wrap;html=1;" vertex="1" parent="1">
          <mxGeometry x="480" y="320" width="120" height="80" as="geometry" />
        </mxCell>
        <mxCell id="nFnSRKEwGQq1fUNqRYj8-18" value="&lt;font style=&quot;vertical-align: inherit&quot;&gt;&lt;font style=&quot;vertical-align: inherit&quot;&gt;Valor do aluguel&lt;/font&gt;&lt;/font&gt;" style="ellipse;whiteSpace=wrap;html=1;" vertex="1" parent="1">
          <mxGeometry x="480" y="450" width="120" height="80" as="geometry" />
        </mxCell>
        <mxCell id="nFnSRKEwGQq1fUNqRYj8-20" value="&lt;span&gt;&lt;font style=&quot;vertical-align: inherit&quot;&gt;&lt;font style=&quot;vertical-align: inherit&quot;&gt;&amp;lt;&amp;lt;include&amp;gt;&amp;gt;&lt;/font&gt;&lt;/font&gt;&lt;/span&gt;" style="text;html=1;strokeColor=none;fillColor=none;align=center;verticalAlign=middle;whiteSpace=wrap;rounded=0;" vertex="1" parent="1">
          <mxGeometry x="180" y="110" width="40" height="20" as="geometry" />
        </mxCell>
        <mxCell id="nFnSRKEwGQq1fUNqRYj8-21" value="&lt;font style=&quot;vertical-align: inherit&quot;&gt;&lt;font style=&quot;vertical-align: inherit&quot;&gt;&amp;lt;&amp;lt;include&amp;gt;&amp;gt;&lt;/font&gt;&lt;/font&gt;" style="text;html=1;align=center;verticalAlign=middle;resizable=0;points=[];autosize=1;strokeColor=none;" vertex="1" parent="1">
          <mxGeometry x="160" y="140" width="80" height="20" as="geometry" />
        </mxCell>
        <mxCell id="nFnSRKEwGQq1fUNqRYj8-22" value="&lt;font style=&quot;vertical-align: inherit&quot;&gt;&lt;font style=&quot;vertical-align: inherit&quot;&gt;&amp;lt;&amp;lt;include&amp;gt;&amp;gt;&lt;/font&gt;&lt;/font&gt;" style="text;html=1;align=center;verticalAlign=middle;resizable=0;points=[];autosize=1;strokeColor=none;" vertex="1" parent="1">
          <mxGeometry x="339" y="190" width="80" height="20" as="geometry" />
        </mxCell>
        <mxCell id="nFnSRKEwGQq1fUNqRYj8-23" value="&lt;font style=&quot;vertical-align: inherit&quot;&gt;&lt;font style=&quot;vertical-align: inherit&quot;&gt;&lt;font style=&quot;vertical-align: inherit&quot;&gt;&lt;font style=&quot;vertical-align: inherit&quot;&gt;&amp;lt;&amp;lt;include&amp;gt;&amp;gt;&lt;/font&gt;&lt;/font&gt;&lt;/font&gt;&lt;/font&gt;" style="text;html=1;align=center;verticalAlign=middle;resizable=0;points=[];autosize=1;strokeColor=none;" vertex="1" parent="1">
          <mxGeometry x="339" y="220" width="80" height="20" as="geometry" />
        </mxCell>
        <mxCell id="nFnSRKEwGQq1fUNqRYj8-24" value="&lt;font style=&quot;vertical-align: inherit&quot;&gt;&lt;font style=&quot;vertical-align: inherit&quot;&gt;&lt;font style=&quot;vertical-align: inherit&quot;&gt;&lt;font style=&quot;vertical-align: inherit&quot;&gt;&amp;lt;&amp;lt;include&amp;gt;&amp;gt;&lt;/font&gt;&lt;/font&gt;&lt;/font&gt;&lt;/font&gt;" style="text;html=1;align=center;verticalAlign=middle;resizable=0;points=[];autosize=1;strokeColor=none;" vertex="1" parent="1">
          <mxGeometry x="339" y="280" width="80" height="20" as="geometry" />
        </mxCell>
        <mxCell id="nFnSRKEwGQq1fUNqRYj8-25" value="&lt;span&gt;&lt;font style=&quot;vertical-align: inherit&quot;&gt;&lt;font style=&quot;vertical-align: inherit&quot;&gt;&lt;font style=&quot;vertical-align: inherit&quot;&gt;&lt;font style=&quot;vertical-align: inherit&quot;&gt;&amp;lt;&amp;lt;include&amp;gt;&amp;gt;&lt;/font&gt;&lt;/font&gt;&lt;/font&gt;&lt;/font&gt;&lt;/span&gt;" style="text;html=1;align=center;verticalAlign=middle;resizable=0;points=[];autosize=1;strokeColor=none;" vertex="1" parent="1">
          <mxGeometry x="339" y="470" width="80" height="20" as="geometry" />
        </mxCell>
      </root>
    </mxGraphModel>
  </diagram>
</mxfile>
